<?xml version="1.0" encoding="UTF-8" standalone="no"?>
<!-- Created with Inkscape (http://www.inkscape.org/) -->

<svg
   xmlns:dc="http://purl.org/dc/elements/1.1/"
   xmlns:cc="http://creativecommons.org/ns#"
   xmlns:rdf="http://www.w3.org/1999/02/22-rdf-syntax-ns#"
   xmlns:svg="http://www.w3.org/2000/svg"
   xmlns="http://www.w3.org/2000/svg"
   xmlns:sodipodi="http://sodipodi.sourceforge.net/DTD/sodipodi-0.dtd"
   xmlns:inkscape="http://www.inkscape.org/namespaces/inkscape"
   version="1.1"
   id="svg2"
   width="32.000046"
   height="27.106718"
   viewBox="0 0 32.000046 27.106718"
   sodipodi:docname="description.svg"
   inkscape:version="0.92.3 (2405546, 2018-03-11)">
  <metadata
     id="metadata8">
    <rdf:RDF>
      <cc:Work
         rdf:about="">
        <dc:format>image/svg+xml</dc:format>
        <dc:type
           rdf:resource="http://purl.org/dc/dcmitype/StillImage" />
        <dc:title></dc:title>
      </cc:Work>
    </rdf:RDF>
  </metadata>
  <defs
     id="defs6" />
  <sodipodi:namedview
     pagecolor="#ffffff"
     bordercolor="#666666"
     borderopacity="1"
     objecttolerance="10"
     gridtolerance="10"
     guidetolerance="10"
     inkscape:pageopacity="0"
     inkscape:pageshadow="2"
     inkscape:window-width="820"
     inkscape:window-height="480"
     id="namedview4"
     showgrid="false"
     inkscape:zoom="2.5031581"
     inkscape:cx="31.854129"
     inkscape:cy="31.367077"
     inkscape:window-x="2411"
     inkscape:window-y="0"
     inkscape:window-maximized="0"
     inkscape:current-layer="svg2" />
  <path
     style="fill:#000000;stroke-width:0.16825277"
     d="m 9.0175052,27.087083 c -0.0925,-0.0307 -0.39317,-0.105861 -0.66806,-0.167111 -0.31842,-0.071 -1.11226,-0.709519 -2.18729,-1.75949 l -1.68747,-1.64812 -1.13097,-0.0992 c -0.62203,-0.0546 -1.34131,-0.20909 -1.5984,-0.343369 -0.62183,-0.32476 -1.32943001,-1.08843 -1.55038001,-1.673211 -0.28849,-0.76356 -0.24375,-18.8152595 0.0484,-19.5143995 0.27296,-0.65328 1.28455001,-1.57808 1.92100001,-1.75619 0.6003,-0.16799 27.0710998,-0.16799 27.6713998,0 0.63645,0.17811 1.64804,1.10291 1.921,1.75619 0.29212,0.69914 0.33685,18.7508405 0.0484,19.5143995 -0.2219,0.58731 -0.92069,1.33926 -1.5877,1.7085 -0.44602,0.24691 -1.40537,0.28506 -8.24439,0.32784 l -7.73962,0.0484 -1.59841,1.5736 c -0.87912,0.86548 -1.74982,1.64765 -1.9349,1.73816 -0.39265,0.19201 -1.4386998,0.37482 -1.6825298,0.29403 z m 11.9272598,-6.81529 h 8.01069 V 11.690902 3.1100125 H 15.999995 3.0445352 v 8.5808895 8.580891 h 1.30683 1.30682 l 1.84791,1.86274 1.84792,1.86274 1.7900298,-1.86274 1.79004,-1.86274 z M 6.7583052,17.472933 c -0.472,-0.60005 -0.44662,-1.32485 0.0643,-1.83574 l 0.41298,-0.41298 h 4.5581198 4.55812 l 0.41298,0.41298 c 0.51089,0.51089 0.53627,1.23569 0.0643,1.83574 l -0.34872,0.44332 h -4.68665 -4.6866498 z m 0.0643,-4.84899 c -0.26033,-0.26033 -0.41299,-0.60522 -0.41299,-0.93304 0,-0.32782 0.15266,-0.67271 0.41299,-0.93304 l 0.41298,-0.41298 h 8.7644398 8.76444 l 0.41298,0.41298 c 0.54638,0.54638 0.54638,1.3197 0,1.86608 l -0.41298,0.41298 h -8.76444 -8.7644398 z m 0,-4.8793305 c -0.51089,-0.51089 -0.53627,-1.2357 -0.0643,-1.83574 l 0.34872,-0.44332 h 8.8929698 8.89297 l 0.34872,0.44332 c 0.472,0.60004 0.44662,1.32485 -0.0643,1.83574 l -0.41298,0.41298 h -8.76444 -8.7644398 z"
     id="path817"
     inkscape:connector-curvature="0" />
</svg>
