<?xml version="1.0" encoding="UTF-8" standalone="no"?>
<!-- Created with Inkscape (http://www.inkscape.org/) -->

<svg
   xmlns:dc="http://purl.org/dc/elements/1.1/"
   xmlns:cc="http://creativecommons.org/ns#"
   xmlns:rdf="http://www.w3.org/1999/02/22-rdf-syntax-ns#"
   xmlns:svg="http://www.w3.org/2000/svg"
   xmlns="http://www.w3.org/2000/svg"
   xmlns:sodipodi="http://sodipodi.sourceforge.net/DTD/sodipodi-0.dtd"
   xmlns:inkscape="http://www.inkscape.org/namespaces/inkscape"
   version="1.1"
   id="svg2"
   width="36"
   height="22.989977"
   viewBox="0 0 36.000001 22.989977"
   sodipodi:docname="info.svg"
   inkscape:version="0.92.3 (2405546, 2018-03-11)">
  <metadata
     id="metadata8">
    <rdf:RDF>
      <cc:Work
         rdf:about="">
        <dc:format>image/svg+xml</dc:format>
        <dc:type
           rdf:resource="http://purl.org/dc/dcmitype/StillImage" />
        <dc:title />
      </cc:Work>
    </rdf:RDF>
  </metadata>
  <defs
     id="defs6" />
  <sodipodi:namedview
     pagecolor="#ffffff"
     bordercolor="#666666"
     borderopacity="1"
     objecttolerance="10"
     gridtolerance="10"
     guidetolerance="10"
     inkscape:pageopacity="0"
     inkscape:pageshadow="2"
     inkscape:window-width="1920"
     inkscape:window-height="1001"
     id="namedview4"
     showgrid="false"
     inkscape:zoom="12.754946"
     inkscape:cx="30.992624"
     inkscape:cy="-6.9794049"
     inkscape:window-x="-9"
     inkscape:window-y="-9"
     inkscape:window-maximized="1"
     inkscape:current-layer="svg2" />
  <path
     style="fill:#000000;stroke:none;stroke-width:0.03712497;stroke-miterlimit:4;stroke-dasharray:none;stroke-opacity:1"
     d="M 3.9036375,22.959421 1.3608361,22.933434 1.1175438,22.819584 C 0.8403216,22.68986 0.4664056,22.352912 0.2836833,22.068164 0.218883,21.967139 0.1434297,21.783618 0.1160585,21.660318 -0.0322164,20.992608 -0.0414639,2.8237732 0.1059337,1.5911456 0.1748959,1.0141336 0.2251836,0.8947938 0.523747,0.5996615 0.896628,0.2310781 1.1464565,0.1082732 1.6236811,0.0590095 2.1354543,0.0061349 28.580119,-0.0240155 32.074298,0.0242471 l 2.588353,0.035775 0.261291,0.1291499 c 0.475582,0.2350348 0.898402,0.7457506 0.978165,1.1814739 0.02655,0.1453837 0.05411,1.9074695 0.08077,5.1725539 0.045,5.5107072 -0.0045,14.6602222 -0.08111,15.0766862 -0.05231,0.283308 -0.174769,0.490465 -0.473624,0.801167 -0.168536,0.175231 -0.317947,0.288259 -0.499916,0.378191 l -0.259537,0.128273 -3.086075,0.0342 c -3.507983,0.03881 -23.8261957,0.03724 -27.6788667,-0.0022 z M 33.080913,21.533012 c 0.742758,-0.0162 1.362914,-0.04173 1.378124,-0.05681 0.06728,-0.06694 0.08246,-1.291263 0.103837,-8.3823 0.02273,-7.5292966 -0.009,-11.4872454 -0.09337,-11.5713728 C 34.398624,1.4516562 32.029073,1.4292692 22.010046,1.404755 12.517529,1.38158 2.1977453,1.426355 1.7056708,1.492843 l -0.1837461,0.024862 -0.026325,0.4042572 c -0.047025,0.7223955 -0.075375,15.4311172 -0.033863,17.5134452 0.021263,1.062302 0.048825,1.957948 0.0612,1.990337 0.036337,0.09473 0.510232,0.109575 4.4786436,0.140332 4.4002537,0.03409 25.1602537,0.009 27.0792657,-0.03296 z M 4.9580543,19.83603 C 3.9950099,19.787767 3.7608526,19.704743 3.3412618,19.263023 2.6371137,18.521739 2.5879512,17.722899 3.143982,16.056945 3.414848,15.24537 3.5530766,14.969554 3.8279814,14.692073 4.4821795,14.031755 5.1803423,13.6834 7.3879843,12.915779 l 0.574053,-0.199597 0.45441,0.309757 c 0.573435,0.390892 0.700998,0.431122 1.297191,0.409117 0.5283787,-0.01947 0.5823217,-0.03915 1.1530337,-0.419175 l 0.415012,-0.27639 0.577495,0.19062 c 1.732252,0.57177 3.115562,1.241616 3.540451,1.714397 0.367673,0.409106 0.599816,0.988739 0.975903,2.436703 0.175118,0.674212 0.189877,1.078436 0.05096,1.396507 -0.213839,0.489734 -0.653039,1.012015 -0.976364,1.161054 -0.252495,0.116393 -0.57402,0.161303 -1.433248,0.200183 -0.857486,0.03881 -8.2746937,0.03645 -9.0588747,-0.0034 z M 14.958057,18.335405 c 0.270349,-0.304661 0.268155,-0.445972 -0.02261,-1.456311 C 14.665053,15.939472 14.567966,15.706958 14.375153,15.53724 14.01306,15.218517 12.992956,14.724102 12.023466,14.397436 L 11.541979,14.2352 11.107325,14.443775 c -0.663536,0.31842 -0.891754,0.377246 -1.4636577,0.37728 -0.571286,3.3e-5 -0.762254,-0.04523 -1.401333,-0.332168 -0.268075,-0.120352 -0.498711,-0.200666 -0.576258,-0.200666 -0.245711,0 -1.871514,0.610121 -2.359156,0.88533 -0.503662,0.284253 -0.711348,0.611414 -0.9690517,1.52659 -0.295931,1.050895 -0.3012972,1.412076 -0.02475,1.667327 0.0972,0.08977 0.1163361,0.09236 0.8224297,0.113231 0.397586,0.0117 2.738226,0.02002 5.2014107,0.01834 l 4.47852,-0.0034 z m 3.781245,-1.070436 v -0.698254 h 6.100499 6.100498 v 0.698254 0.698241 H 24.839801 18.739302 Z M 9.1843043,12.304252 c -0.290396,-0.03848 -0.493504,-0.109238 -0.808154,-0.281531 -0.740914,-0.405787 -1.275243,-0.948104 -1.784384,-1.811069 -0.135922,-0.2303772 -0.294952,-0.4493132 -0.368426,-0.5072062 -0.133009,-0.104737 -0.337623,-0.400927 -0.504224,-0.729775 -0.337106,-0.665392 -0.348953,-1.310984 -0.03465,-1.889447 0.301004,-0.554006 0.305358,-0.566448 0.380362,-1.0864005 0.0747,-0.5176008 0.153393,-0.8059155 0.311388,-1.1403102 0.422482,-0.8941942 1.314967,-1.6367835 2.275221,-1.8931033 0.238702,-0.063674 0.404572,-0.078975 0.881999,-0.08145 1.0930257,-0.00562 1.6726597,0.1826098 2.4233037,0.7864755 0.712574,0.573232 1.125989,1.3491101 1.248152,2.3424617 0.05861,0.4763583 0.112927,0.6277718 0.369912,1.0306228 0.221546,0.347276 0.300498,0.93322 0.185343,1.375334 -0.121736,0.467403 -0.373691,0.938125 -0.663097,1.238848 -0.08752,0.0909 -0.278145,0.3555562 -0.423596,0.5880042 -0.321975,0.514518 -0.536467,0.78805 -0.866947,1.10556 -0.450787,0.43309 -0.89848,0.722102 -1.369686,0.884226 -0.23454,0.08066 -0.8904027,0.116696 -1.2525167,0.06874 z M 10.194935,10.85352 c 0.55881,-0.273082 1.048814,-0.801438 1.402412,-1.5121782 0.158929,-0.319444 0.250212,-0.458066 0.357694,-0.543195 0.330277,-0.261607 0.480318,-0.493222 0.523473,-0.808075 0.01913,-0.139444 0.009,-0.172721 -0.09101,-0.286053 -0.06188,-0.07054 -0.178392,-0.157917 -0.258784,-0.194164 -0.08944,-0.04039 -0.160301,-0.103388 -0.182621,-0.162585 -0.02002,-0.05321 -0.04534,-0.361271 -0.05625,-0.684675 C 11.85891,5.7439548 11.804797,5.5515912 11.452583,5.1071829 11.113688,4.6796045 10.626282,4.3441973 10.220664,4.2594174 9.9335423,4.1994549 9.2038453,4.20823 8.9439363,4.2748299 c -0.529739,0.1357986 -1.306506,0.8937329 -1.472691,1.4369837 -0.03172,0.1036124 -0.07054,0.4728483 -0.09236,0.8772402 -0.0207,0.38403 -0.05456,0.733342 -0.07526,0.77625 -0.0207,0.04286 -0.101475,0.113872 -0.179528,0.157713 -0.250357,0.140704 -0.302028,0.239378 -0.283095,0.540664 0.02047,0.325777 0.113805,0.489824 0.373444,0.656392 0.249378,0.159985 0.302366,0.224572 0.387675,0.472532 0.235631,0.684855 0.810493,1.3404932 1.454263,1.6585752 0.462509,0.228533 0.67474,0.22896 1.1385777,0.0022 z m 8.544367,0.6417 v -0.698253 h 6.100499 6.100498 v 0.698253 0.698242 h -6.100498 -6.100499 z m 0,-5.7697489 V 5.0272179 h 6.100499 6.100498 v 0.6982532 0.6982531 h -6.100498 -6.100499 z"
     id="path817"
     inkscape:connector-curvature="0" />
</svg>
