<?xml version="1.0" encoding="UTF-8" standalone="no"?>
<!-- Created with Inkscape (http://www.inkscape.org/) -->

<svg
   xmlns:dc="http://purl.org/dc/elements/1.1/"
   xmlns:cc="http://creativecommons.org/ns#"
   xmlns:rdf="http://www.w3.org/1999/02/22-rdf-syntax-ns#"
   xmlns:svg="http://www.w3.org/2000/svg"
   xmlns="http://www.w3.org/2000/svg"
   xmlns:sodipodi="http://sodipodi.sourceforge.net/DTD/sodipodi-0.dtd"
   xmlns:inkscape="http://www.inkscape.org/namespaces/inkscape"
   version="1.1"
   id="svg2"
   width="32.000164"
   height="25.574619"
   viewBox="0 0 32.000164 25.574619"
   sodipodi:docname="picture.svg"
   inkscape:version="0.92.3 (2405546, 2018-03-11)">
  <metadata
     id="metadata8">
    <rdf:RDF>
      <cc:Work
         rdf:about="">
        <dc:format>image/svg+xml</dc:format>
        <dc:type
           rdf:resource="http://purl.org/dc/dcmitype/StillImage" />
        <dc:title />
      </cc:Work>
    </rdf:RDF>
  </metadata>
  <defs
     id="defs6" />
  <sodipodi:namedview
     pagecolor="#ffffff"
     bordercolor="#666666"
     borderopacity="1"
     objecttolerance="10"
     gridtolerance="10"
     guidetolerance="10"
     inkscape:pageopacity="0"
     inkscape:pageshadow="2"
     inkscape:window-width="1920"
     inkscape:window-height="1001"
     id="namedview4"
     showgrid="false"
     inkscape:zoom="29.5"
     inkscape:cx="11.054483"
     inkscape:cy="-5.8545235"
     inkscape:window-x="-9"
     inkscape:window-y="-9"
     inkscape:window-maximized="1"
     inkscape:current-layer="svg2" />
  <path
     style="fill:#000000;stroke-width:0.0314417"
     d="M 2.2291958,25.55601 C 1.2123758,25.38508 0.37567577,24.61499 0.08361577,23.58124 l -0.0711,-0.25154 -0.01,-10.29715 c -0.007,-7.34051 3.7e-4,-10.39647 0.0251,-10.64302 0.0621,-0.61895 0.28341,-1.10628 0.70325,-1.54826 C 1.1167758,0.43502 1.4922558,0.20884 2.0097758,0.0709 L 2.2759058,0 H 15.984486 c 11.34626,0 13.7438,0.007 13.91295,0.0422 0.95066,0.1963 1.75052,0.94591 2.03504,1.90719 0.0529,0.17881 0.0563,0.73863 0.0644,10.73734 0.008,9.5441 0.004,10.57246 -0.0415,10.79831 -0.0988,0.49284 -0.30127,0.86664 -0.6871,1.26873 -0.40301,0.42 -0.83613,0.6691 -1.346,0.77413 -0.21939,0.0452 -1.53849,0.0495 -13.92867,0.0456 C 8.4661258,25.5715 2.2719058,25.5633 2.2286758,25.556 Z M 29.628216,23.39567 c 0.072,-0.0422 0.15993,-0.1308 0.19927,-0.20079 l 0.0704,-0.12527 v -10.2703 c 0,-8.60301 -0.007,-10.28697 -0.0429,-10.37295 -0.0547,-0.13087 -0.20909,-0.26107 -0.35897,-0.3027 -0.17378,-0.0483 -26.8422702,-0.0455 -26.9870302,0.003 -0.12754,0.0425 -0.29384,0.19204 -0.34092,0.30646 -0.024,0.0584 -0.0315,3.08025 -0.0257,10.39767 l 0.008,10.31532 0.0843,0.11046 c 0.0463,0.0607 0.13123,0.13361 0.18865,0.16191 0.0962,0.0474 1.16822,0.0515 13.5901202,0.0522 l 13.48573,7.1e-4 z M 4.2729058,19.7217 v -1.58001 l 2.66479,-2.66465 2.66479,-2.66466 1.3203002,1.32059 c 0.72617,0.72632 1.33454,1.32059 1.35194,1.32059 0.0174,0 1.94874,-1.91716 4.29188,-4.26035 l 4.26026,-4.26034 3.45077,3.45067 3.45078,3.45066 v 3.73376 3.73376 H 16.000656 4.2729058 Z m 2.61072,-9.12966 c -1.25236,-0.23285 -2.26481,-1.21106 -2.53437,-2.44868 -0.0747,-0.34318 -0.0747,-1.04061 0,-1.38343 0.13021,-0.59683 0.39986,-1.08696 0.84702,-1.53955 0.41586,-0.42093 0.78297,-0.65103 1.29744,-0.81323 0.75609,-0.23839 1.69779,-0.17244 2.37456,0.1663 0.85922,0.43005 1.4821702,1.20402 1.7158902,2.13186 0.0757,0.30053 0.0752,1.19419 -9.1e-4,1.49662 -0.0787,0.31302 -0.22571,0.66328 -0.38742,0.92329 -0.17052,0.27416 -0.5501802,0.68461 -0.8294602,0.89671 -0.26863,0.20401 -0.76698,0.4423 -1.10046,0.5262 -0.36315,0.0914 -1.01567,0.11209 -1.38238,0.0439 z"
     id="path817"
     inkscape:connector-curvature="0" />
</svg>
