<?xml version="1.0" encoding="UTF-8" standalone="no"?>
<!-- Created with Inkscape (http://www.inkscape.org/) -->

<svg
   xmlns:dc="http://purl.org/dc/elements/1.1/"
   xmlns:cc="http://creativecommons.org/ns#"
   xmlns:rdf="http://www.w3.org/1999/02/22-rdf-syntax-ns#"
   xmlns:svg="http://www.w3.org/2000/svg"
   xmlns="http://www.w3.org/2000/svg"
   xmlns:sodipodi="http://sodipodi.sourceforge.net/DTD/sodipodi-0.dtd"
   xmlns:inkscape="http://www.inkscape.org/namespaces/inkscape"
   version="1.1"
   id="svg2"
   width="399.97061"
   height="399.93079"
   viewBox="0 0 399.97061 399.93078"
   sodipodi:docname="power-button-red.svg"
   inkscape:version="0.92.3 (2405546, 2018-03-11)"><metadata
   id="metadata8">
  <rdf:RDF>
    <cc:Work
       rdf:about="">
      <dc:format>image/svg+xml</dc:format>
      <dc:type
         rdf:resource="http://purl.org/dc/dcmitype/StillImage" />
      <dc:title></dc:title>
    </cc:Work>
  </rdf:RDF>
</metadata>
<defs
   id="defs6" />
<sodipodi:namedview
   pagecolor="#ffffff"
   bordercolor="#666666"
   borderopacity="1"
   objecttolerance="10"
   gridtolerance="10"
   guidetolerance="10"
   inkscape:pageopacity="0"
   inkscape:pageshadow="2"
   inkscape:window-width="1920"
   inkscape:window-height="1001"
   id="namedview4"
   showgrid="false"
   inkscape:zoom="1.3350176"
   inkscape:cx="9.6894692"
   inkscape:cy="284.85592"
   inkscape:window-x="-9"
   inkscape:window-y="-9"
   inkscape:window-maximized="1"
   inkscape:current-layer="g817" />
<g
   id="g817"
   transform="matrix(0.2,0,0,0.2,1.8375644e-6,-2.0053991e-6)"
   style="fill:#f6f6f6;fill-opacity:1;stroke:none;stroke-opacity:1;stroke-width:0;stroke-miterlimit:4;stroke-dasharray:none">
  <g
     id="g813"
     style="fill:#f6f6f6;fill-opacity:1;stroke:none;stroke-opacity:1;stroke-width:0;stroke-miterlimit:4;stroke-dasharray:none">
    <g
       id="g1602"
       style="fill:#f6f6f6;fill-opacity:1">
      <path
         inkscape:connector-curvature="0"
         id="path817"
         d="m 936.94936,1998.7218 c -200.0695,-12.9968 -387.097,-83.3908 -546.8699,-205.8323 -33.2622,-25.4904 -62.7113,-51.5389 -96.6779,-85.5141 -38.6073,-38.6169 -63.3256,-66.9923 -94.1281,-108.0543 C 52.681261,1403.903 -16.990939,1160.8136 3.5177614,916.32117 22.089061,694.92487 112.80356,488.14227 263.44466,323.82117 c 18.6095,-20.2995 56.8781,-57.7876 76.6909,-75.1268 151.2832,-132.3957 335.6713,-215.727703 532.8138,-240.7991036 36.555,-4.6488 69.4949,-6.93999996 110.9999,-7.72079995 C 1116.5168,-2.3194336 1249.0044,21.952867 1371.5869,71.191467 c 33.4597,13.44 48.1336,20.0792 79.8624,36.133203 247.7993,125.3805 433.0658,348.6009 510.0145,614.4965 20.3108,70.184 32.8712,143.3141 37.5282,218.5 1.677,27.0758 0.7494,118.03753 -1.4482,141.99993 -2.4576,26.7979 -5.3225,50.6683 -8.7015,72.5 -26.4342,170.7912 -97.4277,332.2201 -206.1942,468.8555 -38.9494,48.9294 -88.0279,99.4475 -136.6988,140.7085 -47.0716,39.9053 -103.6008,79.0713 -157.5,109.1233 -17.3117,9.6523 -22.1498,12.196 -42.3853,22.2846 -96.2376,47.9805 -191.7198,77.9031 -301.6147,94.5214 -21.0847,3.1884 -55.5113,6.7048 -82.9829,8.4761 -18.3962,1.1862 -105.94364,1.1379 -124.51704,-0.069 z m 103.99994,-499.9131 c 58.6536,-5.1024 111.8475,-18.787 164,-42.1905 93.7696,-42.0793 173.7483,-113.6167 226.1679,-202.2971 66.6356,-112.7303 86.2049,-245.8168 54.8495,-373.01843 -34.5262,-140.065 -131.1581,-259.9443 -262.5839,-325.7557 -9.9058,-4.9603 -33.8481,-15.7258 -34.974,-15.7258 -0.2527,0 -0.4595,31.0652 -0.4595,69.0337 v 69.0337 l 3.75,2.1978 c 41.8626,24.5346 85.4147,64.646 114.9139,105.8356 37.1108,51.8174 60.0521,112.407 66.85,176.5559 1.8427,17.3882 2.1057,54.42073 0.5068,71.34323 -15.7311,166.4941 -137.3722,301.6255 -301.0207,334.4047 -61.3283,12.2842 -127.83374,8.3638 -187.49994,-11.053 -95.6404,-31.1235 -174.0925,-98.1045 -219.4372,-187.3517 -55.6045,-109.4404 -54.1465,-238.78343 3.8919,-345.27523 30.8514,-56.6075 77.1839,-105.8332 131.5642,-139.7793 l 11.4811,-7.1669 v -68.8892 c 0,-37.8891 -0.2742,-68.8893 -0.6093,-68.8893 -1.3115,0 -22.5435,9.5785 -34.5328,15.579 -96.9108,48.5024 -175.5769,126.294 -224.2739,221.7806 -56.5721,110.9282 -68.6024,239.03233 -33.9147,361.14033 22.7588,80.1157 66.8639,154.8843 126.8307,215.0083 95.9047,96.1562 227.4464,149.6145 361.49994,146.913 11.825,-0.2383 26.675,-0.8835 33,-1.4337 z m 22,-873.98753 v -250 h -62.5 -62.49994 v 250 250 h 62.49994 62.5 z"
         style="fill:#ff0000;fill-opacity:1;stroke:none;stroke-opacity:1;stroke-width:0;stroke-miterlimit:4;stroke-dasharray:none" />
    </g>
  </g>
</g>


   /&gt;
</svg>
